<svg id="final_svg" viewBox="172.00390625 259.10662841796875 716.3099975585938 555.3555297851562" xmlns="http://www.w3.org/2000/svg" xmlns:xlink="http://www.w3.org/1999/xlink" xml:space="preserve">
      <g id="png_group" transform="translate(390.19250999999997, 259.106615) scale(1.284)" opacity="1">
      <g height="404.46000000000004" width="299.61498" transform="rotate(0)">
                  <style type="text/css">.st0{fill:#241F1B;}</style>
          <g id="color_index_0" fill="rgba(45, 45, 45, 1)">
                          <path d="M47.291,253.803c-12.354-22.071-21.803-48.581-26.721-79.572c-8.25-52.035-2.262-97.79-1.999-99.714		l1.314-9.724l9.808,0.216c0.436,0.017,41.438,0.638,75.661-15.833l1.756,5.359l12.542,6.361V0L97.303,24.609l3.229,9.854		c-30.209,15.132-67.7,15.594-72.116,15.594h-0.732L5.712,49.456L2.559,71.222c-0.282,1.877-6.786,46.431,2.102,97.377		c12.436,71.238,48.731,120.504,104.961,142.466L119.62,315C119.62,315,70.707,295.636,47.291,253.803z M231.611,49.469		l-21.514,0.588h-0.732c-4.064,0-36.154-0.385-64.79-12.248l0.985,0.573c35.431,20.696,82.97,19.963,83.439,19.954l4.345-0.103		L231.611,49.469z M132.539,46.699l-0.037,3.129l7.527-25.219L124.124,6.104l9.967,16.41L132.539,46.699z M71.898,187.101		c-0.026,2.342,0.165,4.699,0.571,7.036c0.451,2.325,1.098,4.62,1.912,6.864c3.26,8.677,8.961,16.462,15.38,23.076		c4.582,4.722,9.736,8.465,15.062,12.278c0,0,0-3.063,0-5.321c0-1.462-0.769-2.815-2.022-3.568c-0.38-0.228-0.689-0.415-0.785-0.476		c-12.396-7.875-24.16-18.656-28.749-33.048C72.607,191.721,72.145,189.434,71.898,187.101z M130.74,173.547		c-7.478-13.33-6.505-30.123-6.505-30.123s14.895-0.554,33.301-12.764c0,0,0.012,0,0.012-0.012c0.025-0.012,0.037-0.025,0.062-0.037		c0,0-0.086,0.259-0.271,0.739c0,0.025-0.012,0.049-0.025,0.062c-0.825,2.144-3.56,8.328-9.696,15.265		c-1.479,1.663-3.659,3.745-5.717,5.606c-1.135,1.023-2.409,2.132-3.462,3.038c-1.411,1.214-2.217,2.978-2.217,4.84v54.634		c13.786-9.006,22.509-29.421,22.817-30.16c-3.465,15.777-13.028,28.749-20.938,37.226c-1.203,1.289-1.879,2.976-1.879,4.74v9.754		c0,0,32.525-20.439,31.158-47.112v-66.27c0-3.302-0.53-6.591-1.589-9.733c-3.844-11.433-15.696-31.922-46.139-46.127V183.76		C128.744,179.522,130.74,173.547,130.74,173.547z M103.002,152.924c-0.033-1.104-0.726-2.077-1.755-2.479		c-12.953-5.059-19.503-19.834-19.503-19.834c2.782,9.994,10.378,17.843,15.723,22.35l5.664,60.797L103.002,152.924z		 M119.652,291.083c0,0-21.453-6.649-42.195-28.229c-15.909-16.552-20.73-36.826-20.73-36.826		c13.258,25.015,33.262,42.287,62.925,53.736c80.033-30.891,89.196-129.336,89.196-129.336		C204.99,267.192,119.652,291.083,119.652,291.083z"></path>
                      </g>
              </g>
    </g>
    <g id="text_group" transform="rotate(0)" opacity="1">
      <g id="text_layer_1_0" fill="rgba(36, 31, 27, 1)" transform="translate(322.116555, 682.982615)">
                  <path d="M3.37 46.87C3.37 63.97 15.00 74.24 31.72 74.24C39.82 74.24 51.37 71.39 56.54 64.57L56.54 52.19C56.54 50.02 57.89 48.82 60.29 48.82L61.42 48.82L61.42 48.07L40.34 48.07L40.34 48.82L41.54 48.82C44.02 48.82 45.44 50.02 45.44 52.19L45.44 63.67C43.49 68.84 37.87 71.09 32.70 71.09C21.82 71.09 15.60 62.09 15.60 47.02C15.60 32.02 22.35 22.80 34.42 22.80C43.12 22.80 49.72 26.92 52.34 36.60L53.02 36.60L52.87 23.70C48.29 21.37 40.19 19.65 32.17 19.65C15.30 19.65 3.37 29.40 3.37 46.87ZM67.87 28.95L68.84 28.95C70.94 28.95 72.74 30.67 72.74 32.85L72.74 68.54C72.74 70.72 70.94 72.44 68.77 72.44L67.87 72.44L67.87 73.19L88.49 73.19L88.49 72.44L87.66 72.44C85.56 72.44 83.61 70.87 83.61 68.47L83.61 31.27L86.01 31.27C86.69 31.27 87.36 31.27 87.89 31.35C92.09 31.57 95.69 34.27 95.84 38.77C95.91 40.72 95.99 41.54 95.61 43.04C94.64 47.99 92.09 50.47 87.81 50.54L85.94 50.54L85.94 51.14C87.44 51.37 89.24 52.79 90.44 55.79C91.11 58.27 92.76 61.72 95.46 65.99C98.99 71.62 102.66 73.19 110.99 73.19L117.28 73.19L117.28 72.44C115.71 72.44 114.43 72.07 113.38 71.39C111.21 69.97 107.31 64.64 104.09 58.94C102.51 56.32 99.59 53.47 96.89 52.57C103.79 51.59 107.31 46.27 107.31 40.49C107.31 30.97 98.99 28.20 90.89 28.20L67.87 28.20ZM119.91 73.19L155.23 73.19L158.08 59.39L157.40 59.39C155.38 66.22 150.95 70.12 144.73 70.19L135.73 70.19L135.73 52.42L144.36 52.42C147.73 52.42 149.98 54.97 149.98 58.34L149.98 58.87L150.73 58.87L150.73 42.97L149.98 42.97L149.98 43.49C149.98 46.87 147.66 49.34 144.28 49.42L135.73 49.42L135.73 31.20L146.53 31.20C150.80 31.27 153.35 33.90 153.35 38.32L153.35 38.99L154.10 38.99L154.10 27.07C152.83 27.60 149.01 28.20 146.31 28.20L119.91 28.20L119.91 28.95L120.81 28.95C123.13 28.95 124.86 30.67 124.93 32.85L124.93 68.54C124.86 70.72 123.13 72.44 120.81 72.44L119.91 72.44ZM166.33 50.62C166.33 65.69 176.53 74.02 191.07 74.17C198.27 74.17 209.00 71.39 213.57 65.39L213.57 55.34C213.57 53.32 214.70 52.34 216.87 52.34L217.77 52.34L217.77 51.74L198.50 51.74L198.50 52.34L199.55 52.34C201.65 52.34 202.85 53.47 202.85 55.34L202.77 64.34C201.50 68.77 197.07 71.17 192.05 71.17C182.98 71.17 177.80 63.74 177.80 50.77C177.80 37.87 183.35 30.22 193.77 30.22C202.10 30.22 207.35 34.35 209.52 42.59L210.12 42.59L210.12 30.67C205.92 28.57 198.50 27.22 191.52 27.22C176.75 27.22 166.33 35.17 166.33 50.62ZM224.90 50.69C224.90 57.89 227.29 63.59 232.17 67.79C237.04 72.07 243.42 74.17 251.44 74.17C259.47 74.17 265.84 72.07 270.71 67.79C275.59 63.59 277.99 57.89 277.99 50.69C277.99 43.49 275.59 37.79 270.71 33.52C265.84 29.32 259.47 27.22 251.44 27.22C243.42 27.22 236.97 29.32 232.17 33.52C227.29 37.79 224.90 43.49 224.90 50.69ZM236.37 50.69C236.37 44.39 237.72 39.37 240.49 35.70C243.19 32.02 246.87 30.22 251.44 30.22C256.02 30.22 259.62 32.02 262.39 35.70C265.09 39.37 266.44 44.39 266.44 50.69C266.44 56.99 265.09 61.94 262.39 65.62C259.62 69.29 256.02 71.17 251.44 71.17C246.87 71.17 243.19 69.29 240.49 65.62C237.72 61.94 236.37 56.99 236.37 50.69ZM318.86 74.24C328.53 74.24 335.36 70.87 339.40 64.19L338.65 51.29L338.05 51.29C336.86 58.57 334.68 63.74 331.61 66.74C328.53 69.67 324.11 71.09 318.33 71.09C312.71 70.94 308.28 68.69 305.06 64.34C301.76 59.99 300.11 54.14 300.11 46.72C300.11 39.29 301.83 33.45 305.28 29.17C308.66 24.90 313.31 22.80 319.23 22.80C328.31 22.80 334.16 27.37 336.71 36.60L337.31 36.60L337.16 23.70C331.98 21.00 325.76 19.65 318.48 19.65C308.96 19.65 301.53 22.05 296.06 26.92C290.59 31.80 287.89 38.47 287.89 46.94C287.89 55.42 290.66 62.02 296.14 66.89C301.61 71.77 309.18 74.17 318.86 74.24ZM344.05 28.20L344.05 28.95L344.95 28.95C347.65 28.95 350.13 30.45 351.55 32.62L364.83 53.17L364.83 68.47C364.75 70.64 362.95 72.44 360.63 72.44L359.73 72.44L359.73 73.19L380.72 73.19L380.72 72.44L379.90 72.44C377.50 72.44 375.70 70.64 375.62 68.47L375.62 53.17L388.97 32.62C390.47 30.52 392.95 28.95 395.57 28.95L396.55 28.95L396.55 28.20L380.50 28.20L380.50 28.95L381.25 28.95C382.22 28.95 382.90 29.25 383.35 29.85C384.17 31.12 384.02 31.95 383.72 32.62L373.60 49.87L363.63 32.62C363.40 32.25 363.33 31.87 363.33 31.42C363.33 30.60 364.15 28.95 366.03 28.95L366.85 28.95L366.85 28.20ZM400.67 67.04C400.67 68.24 400.82 69.29 401.12 70.19C403.45 72.52 408.62 74.17 414.99 74.17C420.17 74.17 424.44 72.89 427.74 70.42C430.97 67.94 432.62 64.34 432.62 59.69C432.62 55.27 430.59 51.82 426.47 49.34L414.54 41.99C413.42 41.32 412.52 40.72 411.92 40.27C410.42 39.14 409.67 37.87 409.67 36.37C409.67 32.70 412.97 30.22 418.37 30.22C423.69 30.22 427.22 33.07 427.22 37.79L427.89 37.79L428.94 27.90L424.89 27.90C421.22 27.45 417.69 27.22 414.39 27.22C411.02 27.22 408.17 28.20 405.70 30.22C403.22 32.25 401.87 35.10 401.57 38.62C401.50 39.14 401.50 39.59 401.50 40.04C401.50 44.47 403.75 48.07 408.25 50.84L418.89 57.59C422.87 60.22 424.52 61.64 424.52 64.87C424.52 68.09 421.37 71.17 415.74 71.17C411.85 71.17 408.85 70.04 406.67 67.72C404.50 65.39 403.37 62.77 403.37 59.69C403.37 59.39 403.37 59.09 403.45 58.72L402.85 58.72C401.42 61.04 400.67 63.82 400.67 67.04Z"></path>
              </g>
    </g>
    <g id="tagline_group" transform="rotate(0)" opacity="1">
      <g id="text_layer_2_0" fill="rgba(144, 144, 144, 1)" transform="translate(170.93390149999993, 787.3821350000001)">
                  <path d="M15.15 8.95L15.15 8.95Q15.98 9.38 15.98 10.32L15.98 10.32Q15.98 10.88 15.58 11.42L15.58 11.42Q15.15 11.98 14.48 11.98L14.48 11.98Q14.02 11.98 13.57 11.74L13.57 11.74Q12.25 11.13 10.72 11.13L10.72 11.13Q8.85 11.13 7.45 11.92Q6.06 12.71 5.31 14.14Q4.56 15.58 4.56 17.43L4.56 17.43Q4.56 20.59 6.26 22.22Q7.96 23.86 10.72 23.86L10.72 23.86Q12.36 23.86 13.57 23.24L13.57 23.24Q14.05 23.03 14.42 23.03L14.42 23.03Q15.12 23.03 15.60 23.62L15.60 23.62Q16.00 24.13 16.00 24.72L16.00 24.72Q16.00 25.15 15.79 25.50Q15.58 25.84 15.17 26.03L15.17 26.03Q13.08 27.08 10.72 27.08L10.72 27.08Q8.10 27.08 5.90 25.96Q3.70 24.85 2.39 22.68Q1.07 20.51 1.07 17.43L1.07 17.43Q1.07 14.69 2.32 12.52Q3.57 10.35 5.76 9.13Q7.96 7.91 10.72 7.91L10.72 7.91Q13.11 7.91 15.15 8.95ZM44.56 9.62L44.56 9.62Q44.56 10.16 44.26 10.62L44.26 10.62L38.66 18.63L38.66 25.17Q38.66 25.87 38.20 26.34Q37.75 26.81 37.10 26.81L37.10 26.81Q36.43 26.81 35.96 26.34Q35.50 25.87 35.50 25.17L35.50 25.17L35.50 18.26L29.92 10.86Q29.44 10.21 29.44 9.60L29.44 9.60Q29.44 8.90 29.99 8.43Q30.54 7.96 31.15 7.96L31.15 7.96Q31.90 7.96 32.47 8.71L32.47 8.71L37.18 15.23L41.61 8.77Q42.17 7.96 42.95 7.96L42.95 7.96Q43.59 7.96 44.07 8.44Q44.56 8.93 44.56 9.62ZM59.14 25.17L59.14 25.17L59.14 9.68Q59.14 8.98 59.61 8.51Q60.08 8.04 60.78 8.04L60.78 8.04L67.53 8.04Q72.63 8.04 72.63 12.81L72.63 12.81Q72.63 14.02 72.05 14.95Q71.47 15.87 70.40 16.41L70.40 16.41Q71.85 16.97 72.73 18.11Q73.62 19.25 73.62 21.10L73.62 21.10Q73.62 24.29 71.79 25.55L71.79 25.55Q69.97 26.81 67.45 26.81L67.45 26.81L60.78 26.81Q60.08 26.81 59.61 26.34Q59.14 25.87 59.14 25.17ZM67.26 18.55L62.63 18.55L62.63 23.73L67.45 23.73Q68.74 23.73 69.44 23.06Q70.13 22.39 70.13 21.10L70.13 21.10Q70.13 20.29 69.90 19.80Q69.68 19.30 69.30 19.02Q68.93 18.74 68.40 18.65Q67.88 18.55 67.26 18.55L67.26 18.55ZM62.63 15.39L67.13 15.39Q67.93 15.39 68.54 14.85Q69.14 14.32 69.14 13.40L69.14 13.40Q69.14 12.28 68.59 11.74Q68.04 11.21 67.05 11.21L67.05 11.21L62.63 11.21L62.63 15.39ZM90.51 8.04L90.51 8.04L99.49 8.04Q100.19 8.04 100.65 8.49Q101.12 8.93 101.12 9.62L101.12 9.62Q101.12 10.29 100.67 10.71Q100.21 11.13 99.49 11.13L99.49 11.13L92.22 11.13L92.22 15.68L98.28 15.68Q98.98 15.68 99.45 16.13Q99.92 16.57 99.92 17.26L99.92 17.26Q99.92 17.94 99.46 18.35Q99.01 18.77 98.28 18.77L98.28 18.77L92.22 18.77L92.22 23.73L99.49 23.73Q100.19 23.73 100.65 24.20Q101.12 24.66 101.12 25.28L101.12 25.28Q101.12 25.95 100.65 26.38Q100.19 26.81 99.49 26.81L99.49 26.81L90.51 26.81Q89.81 26.81 89.34 26.34Q88.87 25.87 88.87 25.17L88.87 25.17L88.87 9.68Q88.87 8.98 89.34 8.51Q89.81 8.04 90.51 8.04ZM116.38 25.17L116.38 9.68Q116.38 8.98 116.85 8.51Q117.32 8.04 118.01 8.04L118.01 8.04L125.73 8.04Q126.78 8.04 127.74 8.49Q128.71 8.93 129.45 9.69Q130.18 10.46 130.63 11.51Q131.07 12.57 131.07 13.81L131.07 13.81Q131.07 15.17 130.35 16.43Q129.62 17.69 128.47 18.44L128.47 18.44Q130.16 19.62 130.32 21.61L130.32 21.61Q130.40 22.04 130.40 22.44L130.40 22.44Q130.51 23.27 130.61 23.63Q130.72 23.99 131.10 24.18L131.10 24.18Q131.44 24.40 131.65 24.74Q131.85 25.09 131.85 25.47L131.85 25.47Q131.85 26.17 131.38 26.50Q130.91 26.84 130.29 26.84L130.29 26.84Q129.38 26.84 128.79 26.37Q128.20 25.90 127.84 25.19Q127.48 24.48 127.33 23.63Q127.18 22.79 127.18 22.06L127.18 22.06Q127.18 21.10 126.57 20.54Q125.95 19.97 124.74 19.97L124.74 19.97L119.73 19.97L119.73 25.17Q119.73 25.90 119.34 26.35Q118.95 26.81 118.31 26.81L118.31 26.81Q117.53 26.81 116.95 26.34Q116.38 25.87 116.38 25.17L116.38 25.17ZM125.60 11.13L119.73 11.13L119.73 17.21L125.60 17.21Q125.98 17.21 126.32 16.94Q126.67 16.68 126.95 16.22Q127.24 15.76 127.41 15.16Q127.58 14.56 127.58 13.89L127.58 13.89Q127.58 13.32 127.41 12.83Q127.24 12.33 126.95 11.94Q126.67 11.55 126.32 11.34Q125.98 11.13 125.60 11.13L125.60 11.13ZM153.00 27.08L153.00 27.08Q151.07 27.08 149.57 26.59Q148.07 26.11 146.75 24.96L146.75 24.96Q146.03 24.32 146.03 23.54L146.03 23.54Q146.03 22.92 146.48 22.45Q146.94 21.98 147.58 21.98L147.58 21.98Q148.09 21.98 148.50 22.31L148.50 22.31Q149.57 23.19 150.59 23.59Q151.60 23.99 153.00 23.99L153.00 23.99Q154.50 23.99 155.59 23.32Q156.67 22.65 156.67 21.66L156.67 21.66Q156.67 20.46 155.60 19.77Q154.53 19.09 152.19 18.74L152.19 18.74Q146.32 17.88 146.32 13.27L146.32 13.27Q146.32 11.58 147.21 10.33Q148.09 9.09 149.62 8.43Q151.15 7.77 153.03 7.77L153.03 7.77Q154.71 7.77 156.20 8.28Q157.69 8.79 158.68 9.62L158.68 9.62Q159.46 10.24 159.46 11.05L159.46 11.05Q159.46 11.66 159.00 12.13Q158.55 12.60 157.93 12.60L157.93 12.60Q157.53 12.60 157.21 12.36L157.21 12.36Q156.51 11.80 155.26 11.33Q154.02 10.86 153.03 10.86L153.03 10.86Q151.34 10.86 150.41 11.49Q149.49 12.12 149.49 13.14L149.49 13.14Q149.49 14.29 150.44 14.88Q151.39 15.47 153.43 15.84L153.43 15.84Q155.73 16.25 157.11 16.88Q158.49 17.51 159.19 18.59Q159.89 19.68 159.89 21.47L159.89 21.47Q159.89 23.16 158.94 24.44Q157.99 25.71 156.40 26.39Q154.82 27.08 153.00 27.08ZM176.78 8.04L176.78 8.04L185.76 8.04Q186.46 8.04 186.93 8.49Q187.39 8.93 187.39 9.62L187.39 9.62Q187.39 10.29 186.94 10.71Q186.48 11.13 185.76 11.13L185.76 11.13L178.49 11.13L178.49 15.68L184.55 15.68Q185.25 15.68 185.72 16.13Q186.19 16.57 186.19 17.26L186.19 17.26Q186.19 17.94 185.73 18.35Q185.28 18.77 184.55 18.77L184.55 18.77L178.49 18.77L178.49 23.73L185.76 23.73Q186.46 23.73 186.93 24.20Q187.39 24.66 187.39 25.28L187.39 25.28Q187.39 25.95 186.93 26.38Q186.46 26.81 185.76 26.81L185.76 26.81L176.78 26.81Q176.08 26.81 175.61 26.34Q175.14 25.87 175.14 25.17L175.14 25.17L175.14 9.68Q175.14 8.98 175.61 8.51Q176.08 8.04 176.78 8.04ZM215.79 8.95L215.79 8.95Q216.62 9.38 216.62 10.32L216.62 10.32Q216.62 10.88 216.21 11.42L216.21 11.42Q215.79 11.98 215.12 11.98L215.12 11.98Q214.66 11.98 214.20 11.74L214.20 11.74Q212.89 11.13 211.36 11.13L211.36 11.13Q209.49 11.13 208.09 11.92Q206.70 12.71 205.95 14.14Q205.20 15.58 205.20 17.43L205.20 17.43Q205.20 20.59 206.90 22.22Q208.60 23.86 211.36 23.86L211.36 23.86Q213.00 23.86 214.20 23.24L214.20 23.24Q214.69 23.03 215.06 23.03L215.06 23.03Q215.76 23.03 216.24 23.62L216.24 23.62Q216.64 24.13 216.64 24.72L216.64 24.72Q216.64 25.15 216.43 25.50Q216.21 25.84 215.81 26.03L215.81 26.03Q213.72 27.08 211.36 27.08L211.36 27.08Q208.73 27.08 206.54 25.96Q204.34 24.85 203.02 22.68Q201.71 20.51 201.71 17.43L201.71 17.43Q201.71 14.69 202.96 12.52Q204.20 10.35 206.40 9.13Q208.60 7.91 211.36 7.91L211.36 7.91Q213.75 7.91 215.79 8.95ZM244.95 8.02L244.95 8.02Q245.65 8.02 246.08 8.47Q246.51 8.93 246.51 9.65L246.51 9.65L246.51 19.36Q246.51 21.58 245.57 23.30Q244.63 25.01 242.94 25.98Q241.25 26.94 239.08 26.94L239.08 26.94Q236.91 26.94 235.21 25.98Q233.51 25.01 232.57 23.30Q231.63 21.58 231.63 19.36L231.63 19.36L231.63 9.65Q231.63 8.95 232.11 8.49Q232.59 8.02 233.35 8.02L233.35 8.02Q233.99 8.02 234.47 8.49Q234.95 8.95 234.95 9.65L234.95 9.65L234.95 19.36Q234.95 20.64 235.52 21.65Q236.08 22.65 237.03 23.19Q237.98 23.73 239.08 23.73L239.08 23.73Q240.24 23.73 241.24 23.19Q242.25 22.65 242.85 21.65Q243.45 20.64 243.45 19.36L243.45 19.36L243.45 9.65Q243.45 8.93 243.85 8.47Q244.26 8.02 244.95 8.02ZM262.70 25.17L262.70 9.68Q262.70 8.98 263.17 8.51Q263.64 8.04 264.34 8.04L264.34 8.04L272.06 8.04Q273.10 8.04 274.07 8.49Q275.03 8.93 275.77 9.69Q276.51 10.46 276.95 11.51Q277.39 12.57 277.39 13.81L277.39 13.81Q277.39 15.17 276.67 16.43Q275.95 17.69 274.79 18.44L274.79 18.44Q276.48 19.62 276.64 21.61L276.64 21.61Q276.72 22.04 276.72 22.44L276.72 22.44Q276.83 23.27 276.94 23.63Q277.04 23.99 277.42 24.18L277.42 24.18Q277.77 24.40 277.97 24.74Q278.17 25.09 278.17 25.47L278.17 25.47Q278.17 26.17 277.70 26.50Q277.23 26.84 276.62 26.84L276.62 26.84Q275.70 26.84 275.11 26.37Q274.52 25.90 274.16 25.19Q273.80 24.48 273.65 23.63Q273.51 22.79 273.51 22.06L273.51 22.06Q273.51 21.10 272.89 20.54Q272.27 19.97 271.07 19.97L271.07 19.97L266.05 19.97L266.05 25.17Q266.05 25.90 265.66 26.35Q265.28 26.81 264.63 26.81L264.63 26.81Q263.85 26.81 263.28 26.34Q262.70 25.87 262.70 25.17L262.70 25.17ZM271.92 11.13L266.05 11.13L266.05 17.21L271.92 17.21Q272.30 17.21 272.65 16.94Q273.00 16.68 273.28 16.22Q273.56 15.76 273.73 15.16Q273.91 14.56 273.91 13.89L273.91 13.89Q273.91 13.32 273.73 12.83Q273.56 12.33 273.28 11.94Q273.00 11.55 272.65 11.34Q272.30 11.13 271.92 11.13L271.92 11.13ZM296.64 9.68L296.64 25.17Q296.64 25.87 296.13 26.34Q295.62 26.81 294.95 26.81L294.95 26.81Q294.23 26.81 293.76 26.34Q293.29 25.87 293.29 25.17L293.29 25.17L293.29 9.68Q293.29 8.98 293.77 8.51Q294.26 8.04 295.01 8.04L295.01 8.04Q295.68 8.04 296.16 8.51Q296.64 8.98 296.64 9.68L296.64 9.68ZM313.26 8.04L313.26 8.04L325.17 8.04Q325.89 8.04 326.35 8.47Q326.80 8.90 326.80 9.60L326.80 9.60Q326.80 10.29 326.35 10.71Q325.89 11.13 325.17 11.13L325.17 11.13L320.96 11.13L320.96 25.17Q320.96 25.87 320.45 26.34Q319.94 26.81 319.19 26.81L319.19 26.81Q318.44 26.81 317.95 26.34Q317.47 25.87 317.47 25.17L317.47 25.17L317.47 11.13L313.26 11.13Q312.54 11.13 312.08 10.70Q311.63 10.27 311.63 9.57L311.63 9.57Q311.63 8.90 312.10 8.47Q312.57 8.04 313.26 8.04ZM355.62 9.62L355.62 9.62Q355.62 10.16 355.33 10.62L355.33 10.62L349.72 18.63L349.72 25.17Q349.72 25.87 349.27 26.34Q348.81 26.81 348.17 26.81L348.17 26.81Q347.50 26.81 347.03 26.34Q346.56 25.87 346.56 25.17L346.56 25.17L346.56 18.26L340.98 10.86Q340.50 10.21 340.50 9.60L340.50 9.60Q340.50 8.90 341.05 8.43Q341.60 7.96 342.22 7.96L342.22 7.96Q342.97 7.96 343.53 8.71L343.53 8.71L348.25 15.23L352.67 8.77Q353.24 7.96 354.01 7.96L354.01 7.96Q354.66 7.96 355.14 8.44Q355.62 8.93 355.62 9.62ZM389.88 25.17L389.88 9.68Q389.88 8.98 390.35 8.51Q390.82 8.04 391.52 8.04L391.52 8.04L397.63 8.04Q398.68 8.04 399.63 8.53Q400.58 9.01 401.33 9.83Q402.08 10.64 402.52 11.74Q402.97 12.84 402.97 14.07L402.97 14.07Q402.97 15.31 402.52 16.39Q402.08 17.48 401.33 18.31Q400.58 19.14 399.63 19.62Q398.68 20.11 397.63 20.11L397.63 20.11L392.97 20.11L392.97 25.17Q392.97 25.90 392.54 26.35Q392.11 26.81 391.41 26.81L391.41 26.81Q390.74 26.81 390.31 26.34Q389.88 25.87 389.88 25.17L389.88 25.17ZM392.97 11.13L392.97 17.05L397.63 17.05Q398.03 17.05 398.41 16.80Q398.78 16.54 399.08 16.13Q399.37 15.71 399.56 15.17Q399.75 14.64 399.75 14.07L399.75 14.07Q399.75 13.51 399.56 12.98Q399.37 12.44 399.08 12.02Q398.78 11.61 398.41 11.37Q398.03 11.13 397.63 11.13L397.63 11.13L392.97 11.13ZM418.22 25.17L418.22 9.68Q418.22 8.98 418.69 8.51Q419.16 8.04 419.86 8.04L419.86 8.04L427.58 8.04Q428.62 8.04 429.59 8.49Q430.55 8.93 431.29 9.69Q432.03 10.46 432.47 11.51Q432.91 12.57 432.91 13.81L432.91 13.81Q432.91 15.17 432.19 16.43Q431.46 17.69 430.31 18.44L430.31 18.44Q432.00 19.62 432.16 21.61L432.16 21.61Q432.24 22.04 432.24 22.44L432.24 22.44Q432.35 23.27 432.46 23.63Q432.56 23.99 432.94 24.18L432.94 24.18Q433.29 24.40 433.49 24.74Q433.69 25.09 433.69 25.47L433.69 25.47Q433.69 26.17 433.22 26.50Q432.75 26.84 432.13 26.84L432.13 26.84Q431.22 26.84 430.63 26.37Q430.04 25.90 429.68 25.19Q429.32 24.48 429.17 23.63Q429.02 22.79 429.02 22.06L429.02 22.06Q429.02 21.10 428.41 20.54Q427.79 19.97 426.58 19.97L426.58 19.97L421.57 19.97L421.57 25.17Q421.57 25.90 421.18 26.35Q420.79 26.81 420.15 26.81L420.15 26.81Q419.37 26.81 418.80 26.34Q418.22 25.87 418.22 25.17L418.22 25.17ZM427.44 11.13L421.57 11.13L421.57 17.21L427.44 17.21Q427.82 17.21 428.17 16.94Q428.52 16.68 428.80 16.22Q429.08 15.76 429.25 15.16Q429.43 14.56 429.43 13.89L429.43 13.89Q429.43 13.32 429.25 12.83Q429.08 12.33 428.80 11.94Q428.52 11.55 428.17 11.34Q427.82 11.13 427.44 11.13L427.44 11.13ZM465.81 17.43L465.81 17.43Q465.81 20.08 464.63 22.29Q463.45 24.50 461.37 25.79Q459.29 27.08 456.69 27.08L456.69 27.08Q454.09 27.08 452.01 25.79Q449.94 24.50 448.77 22.29Q447.60 20.08 447.60 17.43L447.60 17.43Q447.60 14.77 448.77 12.56Q449.94 10.35 452.01 9.06Q454.09 7.77 456.69 7.77L456.69 7.77Q459.29 7.77 461.37 9.06Q463.45 10.35 464.63 12.56Q465.81 14.77 465.81 17.43ZM462.32 17.43L462.32 17.43Q462.32 15.63 461.60 14.17Q460.87 12.71 459.59 11.85Q458.30 10.99 456.69 10.99L456.69 10.99Q455.06 10.99 453.78 11.84Q452.51 12.68 451.80 14.16Q451.09 15.63 451.09 17.43L451.09 17.43Q451.09 19.22 451.80 20.70Q452.51 22.17 453.78 23.02Q455.06 23.86 456.69 23.86L456.69 23.86Q458.30 23.86 459.59 23.00Q460.87 22.14 461.60 20.68Q462.32 19.22 462.32 17.43ZM481.06 25.17L481.06 9.68Q481.06 8.98 481.53 8.51Q482.00 8.04 482.70 8.04L482.70 8.04L491.41 8.04Q492.11 8.04 492.58 8.49Q493.04 8.93 493.04 9.62L493.04 9.62Q493.04 10.21 492.58 10.67Q492.11 11.13 491.41 11.13L491.41 11.13L484.41 11.13L484.41 15.84L490.20 15.84Q490.90 15.84 491.37 16.29Q491.84 16.73 491.84 17.43L491.84 17.43Q491.84 18.02 491.37 18.47Q490.90 18.93 490.20 18.93L490.20 18.93L484.41 18.93L484.41 25.17Q484.41 25.87 483.92 26.34Q483.42 26.81 482.75 26.81L482.75 26.81Q482.00 26.81 481.53 26.35Q481.06 25.90 481.06 25.17L481.06 25.17ZM509.93 8.04L509.93 8.04L518.92 8.04Q519.61 8.04 520.08 8.49Q520.55 8.93 520.55 9.62L520.55 9.62Q520.55 10.29 520.09 10.71Q519.64 11.13 518.92 11.13L518.92 11.13L511.65 11.13L511.65 15.68L517.71 15.68Q518.41 15.68 518.87 16.13Q519.34 16.57 519.34 17.26L519.34 17.26Q519.34 17.94 518.89 18.35Q518.43 18.77 517.71 18.77L517.71 18.77L511.65 18.77L511.65 23.73L518.92 23.73Q519.61 23.73 520.08 24.20Q520.55 24.66 520.55 25.28L520.55 25.28Q520.55 25.95 520.08 26.38Q519.61 26.81 518.92 26.81L518.92 26.81L509.93 26.81Q509.24 26.81 508.77 26.34Q508.30 25.87 508.30 25.17L508.30 25.17L508.30 9.68Q508.30 8.98 508.77 8.51Q509.24 8.04 509.93 8.04ZM541.84 27.08L541.84 27.08Q539.91 27.08 538.41 26.59Q536.90 26.11 535.59 24.96L535.59 24.96Q534.87 24.32 534.87 23.54L534.87 23.54Q534.87 22.92 535.32 22.45Q535.78 21.98 536.42 21.98L536.42 21.98Q536.93 21.98 537.33 22.31L537.33 22.31Q538.41 23.19 539.42 23.59Q540.44 23.99 541.84 23.99L541.84 23.99Q543.34 23.99 544.42 23.32Q545.51 22.65 545.51 21.66L545.51 21.66Q545.51 20.46 544.44 19.77Q543.36 19.09 541.03 18.74L541.03 18.74Q535.16 17.88 535.16 13.27L535.16 13.27Q535.16 11.58 536.05 10.33Q536.93 9.09 538.46 8.43Q539.99 7.77 541.86 7.77L541.86 7.77Q543.55 7.77 545.04 8.28Q546.53 8.79 547.52 9.62L547.52 9.62Q548.30 10.24 548.30 11.05L548.30 11.05Q548.30 11.66 547.84 12.13Q547.39 12.60 546.77 12.60L546.77 12.60Q546.37 12.60 546.05 12.36L546.05 12.36Q545.35 11.80 544.10 11.33Q542.86 10.86 541.86 10.86L541.86 10.86Q540.17 10.86 539.25 11.49Q538.32 12.12 538.32 13.14L538.32 13.14Q538.32 14.29 539.28 14.88Q540.23 15.47 542.27 15.84L542.27 15.84Q544.57 16.25 545.95 16.88Q547.33 17.51 548.03 18.59Q548.73 19.68 548.73 21.47L548.73 21.47Q548.73 23.16 547.77 24.44Q546.82 25.71 545.24 26.39Q543.66 27.08 541.84 27.08ZM570.01 27.08L570.01 27.08Q568.08 27.08 566.58 26.59Q565.08 26.11 563.77 24.96L563.77 24.96Q563.04 24.32 563.04 23.54L563.04 23.54Q563.04 22.92 563.50 22.45Q563.95 21.98 564.60 21.98L564.60 21.98Q565.11 21.98 565.51 22.31L565.51 22.31Q566.58 23.19 567.60 23.59Q568.62 23.99 570.01 23.99L570.01 23.99Q571.51 23.99 572.60 23.32Q573.69 22.65 573.69 21.66L573.69 21.66Q573.69 20.46 572.61 19.77Q571.54 19.09 569.21 18.74L569.21 18.74Q563.34 17.88 563.34 13.27L563.34 13.27Q563.34 11.58 564.22 10.33Q565.11 9.09 566.64 8.43Q568.16 7.77 570.04 7.77L570.04 7.77Q571.73 7.77 573.22 8.28Q574.70 8.79 575.70 9.62L575.70 9.62Q576.47 10.24 576.47 11.05L576.47 11.05Q576.47 11.66 576.02 12.13Q575.56 12.60 574.95 12.60L574.95 12.60Q574.54 12.60 574.22 12.36L574.22 12.36Q573.52 11.80 572.28 11.33Q571.03 10.86 570.04 10.86L570.04 10.86Q568.35 10.86 567.43 11.49Q566.50 12.12 566.50 13.14L566.50 13.14Q566.50 14.29 567.45 14.88Q568.40 15.47 570.44 15.84L570.44 15.84Q572.75 16.25 574.13 16.88Q575.51 17.51 576.21 18.59Q576.90 19.68 576.90 21.47L576.90 21.47Q576.90 23.16 575.95 24.44Q575.00 25.71 573.42 26.39Q571.84 27.08 570.01 27.08ZM595.51 9.68L595.51 25.17Q595.51 25.87 595.00 26.34Q594.49 26.81 593.82 26.81L593.82 26.81Q593.10 26.81 592.63 26.34Q592.16 25.87 592.16 25.17L592.16 25.17L592.16 9.68Q592.16 8.98 592.64 8.51Q593.12 8.04 593.87 8.04L593.87 8.04Q594.54 8.04 595.03 8.51Q595.51 8.98 595.51 9.68L595.51 9.68ZM628.97 17.43L628.97 17.43Q628.97 20.08 627.79 22.29Q626.61 24.50 624.53 25.79Q622.45 27.08 619.85 27.08L619.85 27.08Q617.25 27.08 615.17 25.79Q613.10 24.50 611.93 22.29Q610.76 20.08 610.76 17.43L610.76 17.43Q610.76 14.77 611.93 12.56Q613.10 10.35 615.17 9.06Q617.25 7.77 619.85 7.77L619.85 7.77Q622.45 7.77 624.53 9.06Q626.61 10.35 627.79 12.56Q628.97 14.77 628.97 17.43ZM625.48 17.43L625.48 17.43Q625.48 15.63 624.76 14.17Q624.03 12.71 622.75 11.85Q621.46 10.99 619.85 10.99L619.85 10.99Q618.22 10.99 616.94 11.84Q615.67 12.68 614.96 14.16Q614.25 15.63 614.25 17.43L614.25 17.43Q614.25 19.22 614.96 20.70Q615.67 22.17 616.94 23.02Q618.22 23.86 619.85 23.86L619.85 23.86Q621.46 23.86 622.75 23.00Q624.03 22.14 624.76 20.68Q625.48 19.22 625.48 17.43ZM658.46 8.04L658.46 8.04Q659.10 8.04 659.50 8.47Q659.90 8.90 659.90 9.54L659.90 9.54L659.90 25.17Q659.90 25.87 659.43 26.34Q658.97 26.81 658.27 26.81L658.27 26.81Q657.89 26.81 657.53 26.69Q657.17 26.57 657.01 26.35L657.01 26.35L647.17 13.86L647.17 25.31Q647.17 25.95 646.75 26.38Q646.34 26.81 645.67 26.81L645.67 26.81Q645.02 26.81 644.62 26.38Q644.22 25.95 644.22 25.31L644.22 25.31L644.22 9.68Q644.22 8.98 644.69 8.51Q645.16 8.04 645.86 8.04L645.86 8.04Q646.26 8.04 646.65 8.20Q647.04 8.36 647.22 8.63L647.22 8.63L656.98 21.07L656.98 9.54Q656.98 8.90 657.40 8.47Q657.81 8.04 658.46 8.04ZM684.22 9.01L690.81 24.72Q690.95 25.07 690.95 25.36L690.95 25.36Q690.95 26.06 690.49 26.50Q690.04 26.94 689.45 26.94L689.45 26.94Q688.96 26.94 688.58 26.65Q688.19 26.35 687.97 25.84L687.97 25.84L686.58 22.60L678.59 22.60L677.20 25.87Q677.01 26.38 676.62 26.66Q676.23 26.94 675.77 26.94L675.77 26.94Q675.08 26.94 674.72 26.57Q674.35 26.19 674.35 25.55L674.35 25.55Q674.35 25.31 674.43 25.04L674.43 25.04L681.11 9.01Q681.32 8.47 681.75 8.18Q682.18 7.88 682.72 7.94L682.72 7.94Q683.20 7.94 683.62 8.22Q684.03 8.50 684.22 9.01L684.22 9.01ZM682.56 13.24L679.90 19.52L685.26 19.52L682.56 13.24ZM708.75 23.67L715.75 23.67Q716.44 23.67 716.91 24.11Q717.38 24.56 717.38 25.25L717.38 25.25Q717.38 25.92 716.91 26.37Q716.44 26.81 715.75 26.81L715.75 26.81L707.03 26.81Q706.34 26.81 705.87 26.34Q705.40 25.87 705.40 25.17L705.40 25.17L705.40 9.68Q705.40 8.98 705.88 8.51Q706.36 8.04 707.11 8.04L707.11 8.04Q707.78 8.04 708.27 8.51Q708.75 8.98 708.75 9.68L708.75 9.68L708.75 23.67Z"></path>
              </g>
    </g>
  </svg>