<svg id="final_svg" viewBox="80.65470123291016 337.1470031738281 912.9772338867188 404.4599914550781" xmlns="http://www.w3.org/2000/svg" xmlns:xlink="http://www.w3.org/1999/xlink" xml:space="preserve">
      <g id="png_group" transform="translate(80.65452, 337.147) scale(1.284)" opacity="1">
      <g height="404.46000000000004" width="299.61498" transform="rotate(0)">
                  <style type="text/css">.st0{fill:#241F1B;}</style>
          <g id="color_index_0" fill="rgba(45, 45, 45, 1)">
                          <path d="M47.291,253.803c-12.354-22.071-21.803-48.581-26.721-79.572c-8.25-52.035-2.262-97.79-1.999-99.714		l1.314-9.724l9.808,0.216c0.436,0.017,41.438,0.638,75.661-15.833l1.756,5.359l12.542,6.361V0L97.303,24.609l3.229,9.854		c-30.209,15.132-67.7,15.594-72.116,15.594h-0.732L5.712,49.456L2.559,71.222c-0.282,1.877-6.786,46.431,2.102,97.377		c12.436,71.238,48.731,120.504,104.961,142.466L119.62,315C119.62,315,70.707,295.636,47.291,253.803z M231.611,49.469		l-21.514,0.588h-0.732c-4.064,0-36.154-0.385-64.79-12.248l0.985,0.573c35.431,20.696,82.97,19.963,83.439,19.954l4.345-0.103		L231.611,49.469z M132.539,46.699l-0.037,3.129l7.527-25.219L124.124,6.104l9.967,16.41L132.539,46.699z M71.898,187.101		c-0.026,2.342,0.165,4.699,0.571,7.036c0.451,2.325,1.098,4.62,1.912,6.864c3.26,8.677,8.961,16.462,15.38,23.076		c4.582,4.722,9.736,8.465,15.062,12.278c0,0,0-3.063,0-5.321c0-1.462-0.769-2.815-2.022-3.568c-0.38-0.228-0.689-0.415-0.785-0.476		c-12.396-7.875-24.16-18.656-28.749-33.048C72.607,191.721,72.145,189.434,71.898,187.101z M130.74,173.547		c-7.478-13.33-6.505-30.123-6.505-30.123s14.895-0.554,33.301-12.764c0,0,0.012,0,0.012-0.012c0.025-0.012,0.037-0.025,0.062-0.037		c0,0-0.086,0.259-0.271,0.739c0,0.025-0.012,0.049-0.025,0.062c-0.825,2.144-3.56,8.328-9.696,15.265		c-1.479,1.663-3.659,3.745-5.717,5.606c-1.135,1.023-2.409,2.132-3.462,3.038c-1.411,1.214-2.217,2.978-2.217,4.84v54.634		c13.786-9.006,22.509-29.421,22.817-30.16c-3.465,15.777-13.028,28.749-20.938,37.226c-1.203,1.289-1.879,2.976-1.879,4.74v9.754		c0,0,32.525-20.439,31.158-47.112v-66.27c0-3.302-0.53-6.591-1.589-9.733c-3.844-11.433-15.696-31.922-46.139-46.127V183.76		C128.744,179.522,130.74,173.547,130.74,173.547z M103.002,152.924c-0.033-1.104-0.726-2.077-1.755-2.479		c-12.953-5.059-19.503-19.834-19.503-19.834c2.782,9.994,10.378,17.843,15.723,22.35l5.664,60.797L103.002,152.924z		 M119.652,291.083c0,0-21.453-6.649-42.195-28.229c-15.909-16.552-20.73-36.826-20.73-36.826		c13.258,25.015,33.262,42.287,62.925,53.736c80.033-30.891,89.196-129.336,89.196-129.336		C204.99,267.192,119.652,291.083,119.652,291.083z"></path>
                      </g>
              </g>
    </g>
    <g id="text_group" transform="rotate(0)" opacity="1">
      <g id="text_layer_1_0" fill="rgba(36, 31, 27, 1)" transform="translate(431.282, 488.830644)">
                  <path d="M3.37 46.87C3.37 63.97 15.00 74.24 31.72 74.24C39.82 74.24 51.37 71.39 56.54 64.57L56.54 52.19C56.54 50.02 57.89 48.82 60.29 48.82L61.42 48.82L61.42 48.07L40.34 48.07L40.34 48.82L41.54 48.82C44.02 48.82 45.44 50.02 45.44 52.19L45.44 63.67C43.49 68.84 37.87 71.09 32.70 71.09C21.82 71.09 15.60 62.09 15.60 47.02C15.60 32.02 22.35 22.80 34.42 22.80C43.12 22.80 49.72 26.92 52.34 36.60L53.02 36.60L52.87 23.70C48.29 21.37 40.19 19.65 32.17 19.65C15.30 19.65 3.37 29.40 3.37 46.87ZM67.87 28.95L68.84 28.95C70.94 28.95 72.74 30.67 72.74 32.85L72.74 68.54C72.74 70.72 70.94 72.44 68.77 72.44L67.87 72.44L67.87 73.19L88.49 73.19L88.49 72.44L87.66 72.44C85.56 72.44 83.61 70.87 83.61 68.47L83.61 31.27L86.01 31.27C86.69 31.27 87.36 31.27 87.89 31.35C92.09 31.57 95.69 34.27 95.84 38.77C95.91 40.72 95.99 41.54 95.61 43.04C94.64 47.99 92.09 50.47 87.81 50.54L85.94 50.54L85.94 51.14C87.44 51.37 89.24 52.79 90.44 55.79C91.11 58.27 92.76 61.72 95.46 65.99C98.99 71.62 102.66 73.19 110.99 73.19L117.28 73.19L117.28 72.44C115.71 72.44 114.43 72.07 113.38 71.39C111.21 69.97 107.31 64.64 104.09 58.94C102.51 56.32 99.59 53.47 96.89 52.57C103.79 51.59 107.31 46.27 107.31 40.49C107.31 30.97 98.99 28.20 90.89 28.20L67.87 28.20ZM119.91 73.19L155.23 73.19L158.08 59.39L157.40 59.39C155.38 66.22 150.95 70.12 144.73 70.19L135.73 70.19L135.73 52.42L144.36 52.42C147.73 52.42 149.98 54.97 149.98 58.34L149.98 58.87L150.73 58.87L150.73 42.97L149.98 42.97L149.98 43.49C149.98 46.87 147.66 49.34 144.28 49.42L135.73 49.42L135.73 31.20L146.53 31.20C150.80 31.27 153.35 33.90 153.35 38.32L153.35 38.99L154.10 38.99L154.10 27.07C152.83 27.60 149.01 28.20 146.31 28.20L119.91 28.20L119.91 28.95L120.81 28.95C123.13 28.95 124.86 30.67 124.93 32.85L124.93 68.54C124.86 70.72 123.13 72.44 120.81 72.44L119.91 72.44ZM166.33 50.62C166.33 65.69 176.53 74.02 191.07 74.17C198.27 74.17 209.00 71.39 213.57 65.39L213.57 55.34C213.57 53.32 214.70 52.34 216.87 52.34L217.77 52.34L217.77 51.74L198.50 51.74L198.50 52.34L199.55 52.34C201.65 52.34 202.85 53.47 202.85 55.34L202.77 64.34C201.50 68.77 197.07 71.17 192.05 71.17C182.98 71.17 177.80 63.74 177.80 50.77C177.80 37.87 183.35 30.22 193.77 30.22C202.10 30.22 207.35 34.35 209.52 42.59L210.12 42.59L210.12 30.67C205.92 28.57 198.50 27.22 191.52 27.22C176.75 27.22 166.33 35.17 166.33 50.62ZM224.90 50.69C224.90 57.89 227.29 63.59 232.17 67.79C237.04 72.07 243.42 74.17 251.44 74.17C259.47 74.17 265.84 72.07 270.71 67.79C275.59 63.59 277.99 57.89 277.99 50.69C277.99 43.49 275.59 37.79 270.71 33.52C265.84 29.32 259.47 27.22 251.44 27.22C243.42 27.22 236.97 29.32 232.17 33.52C227.29 37.79 224.90 43.49 224.90 50.69ZM236.37 50.69C236.37 44.39 237.72 39.37 240.49 35.70C243.19 32.02 246.87 30.22 251.44 30.22C256.02 30.22 259.62 32.02 262.39 35.70C265.09 39.37 266.44 44.39 266.44 50.69C266.44 56.99 265.09 61.94 262.39 65.62C259.62 69.29 256.02 71.17 251.44 71.17C246.87 71.17 243.19 69.29 240.49 65.62C237.72 61.94 236.37 56.99 236.37 50.69ZM287.89 46.87C287.89 63.97 299.51 74.24 316.23 74.24C324.33 74.24 335.88 71.39 341.05 64.57L341.05 52.19C341.05 50.02 342.40 48.82 344.80 48.82L345.93 48.82L345.93 48.07L324.86 48.07L324.86 48.82L326.06 48.82C328.53 48.82 329.96 50.02 329.96 52.19L329.96 63.67C328.01 68.84 322.38 71.09 317.21 71.09C306.33 71.09 300.11 62.09 300.11 47.02C300.11 32.02 306.86 22.80 318.93 22.80C327.63 22.80 334.23 26.92 336.86 36.60L337.53 36.60L337.38 23.70C332.81 21.37 324.71 19.65 316.68 19.65C299.81 19.65 287.89 29.40 287.89 46.87ZM352.53 28.95L353.58 28.95C355.45 28.95 357.03 30.30 357.03 32.10L357.03 56.99C357.03 67.87 364.68 74.17 377.72 74.17C390.77 74.17 397.37 67.64 397.37 56.84L397.37 32.02C397.45 30.22 398.95 28.95 400.82 28.95L401.87 28.95L401.87 28.20L388.00 28.20L388.00 28.95L388.97 28.95C390.85 28.95 392.35 30.22 392.42 32.10L392.42 57.29C392.42 65.99 387.70 71.17 379.97 71.17C372.25 71.17 367.83 65.69 367.83 56.47L367.83 32.10C367.83 30.30 369.33 28.95 371.20 28.95L372.25 28.95L372.25 28.20L352.53 28.20ZM402.70 72.44L402.70 73.19L417.69 73.19L417.69 72.44L417.09 72.44C413.79 72.44 414.02 69.44 414.47 68.39L417.47 61.42L433.37 61.42L436.29 68.32C436.67 69.44 437.04 72.44 433.74 72.44L433.14 72.44L433.14 73.19L455.19 73.19L455.19 72.44L454.59 72.44C452.41 72.44 450.01 71.17 448.74 68.24L428.64 26.10L427.97 26.10C427.89 27.22 426.69 30.30 424.52 35.25L409.00 68.54C407.72 71.17 405.40 72.44 403.30 72.44ZM418.74 58.49L425.49 42.82L432.09 58.49ZM459.31 28.95L460.29 28.95C462.39 28.95 464.19 30.67 464.19 32.85L464.19 68.54C464.19 70.72 462.39 72.44 460.21 72.44L459.31 72.44L459.31 73.19L479.94 73.19L479.94 72.44L479.11 72.44C477.01 72.44 475.06 70.87 475.06 68.47L475.06 31.27L477.46 31.27C478.14 31.27 478.81 31.27 479.34 31.35C483.54 31.57 487.14 34.27 487.29 38.77C487.36 40.72 487.43 41.54 487.06 43.04C486.09 47.99 483.54 50.47 479.26 50.54L477.39 50.54L477.39 51.14C478.89 51.37 480.69 52.79 481.89 55.79C482.56 58.27 484.21 61.72 486.91 65.99C490.43 71.62 494.11 73.19 502.43 73.19L508.73 73.19L508.73 72.44C507.16 72.44 505.88 72.07 504.83 71.39C502.66 69.97 498.76 64.64 495.53 58.94C493.96 56.32 491.03 53.47 488.33 52.57C495.23 51.59 498.76 46.27 498.76 40.49C498.76 30.97 490.43 28.20 482.34 28.20L459.31 28.20ZM511.28 73.19L536.63 73.19C551.03 73.19 562.35 66.14 562.35 50.69C562.35 35.10 551.10 28.20 536.63 28.20L511.28 28.20L511.28 28.95L512.18 28.95C514.51 28.95 516.23 30.67 516.46 32.85L516.46 68.39C516.38 70.57 514.58 72.44 512.26 72.44L511.28 72.44ZM535.73 31.12C545.10 31.12 550.95 38.47 550.95 50.69C550.95 62.92 545.10 70.19 535.73 70.19L527.25 70.19L527.25 31.12Z"></path>
              </g>
    </g>
  </svg>